<?xml version="1.0" encoding="UTF-8"?>
<!DOCTYPE svg PUBLIC "-//W3C//DTD SVG 1.1//EN" "http://www.w3.org/Graphics/SVG/1.1/DTD/svg11.dtd">
<!-- Creator: CorelDRAW 2018 (64-Bit Evaluation Version) -->
<svg xmlns="http://www.w3.org/2000/svg" xml:space="preserve" width="8.5in" height="4.304in" version="1.1" style="shape-rendering:geometricPrecision; text-rendering:geometricPrecision; image-rendering:optimizeQuality; fill-rule:evenodd; clip-rule:evenodd"
viewBox="0 0 8500 4304"
 xmlns:xlink="http://www.w3.org/1999/xlink">
 <defs>
  <style type="text/css">
   <![CDATA[
    .fil0 {fill:none}
    .fil13 {fill:#23282A;fill-rule:nonzero}
    .fil8 {fill:#282D3D;fill-rule:nonzero}
    .fil10 {fill:#444954;fill-rule:nonzero}
    .fil16 {fill:#4B525D;fill-rule:nonzero}
    .fil7 {fill:#5E2B2A;fill-rule:nonzero}
    .fil6 {fill:#723431;fill-rule:nonzero}
    .fil5 {fill:#893F3D;fill-rule:nonzero}
    .fil20 {fill:#A8DFEB;fill-rule:nonzero}
    .fil1 {fill:#C1543D;fill-rule:nonzero}
    .fil17 {fill:#CFEDF4;fill-rule:nonzero}
    .fil3 {fill:#DD5D41;fill-rule:nonzero}
    .fil19 {fill:#E2F4F9;fill-rule:nonzero}
    .fil26 {fill:#E8673D;fill-rule:nonzero}
    .fil12 {fill:#E8E6C3;fill-rule:nonzero}
    .fil15 {fill:#E8E8E8;fill-rule:nonzero}
    .fil14 {fill:#EB5228;fill-rule:nonzero}
    .fil9 {fill:#F2F2F2;fill-rule:nonzero}
    .fil11 {fill:white;fill-rule:nonzero}
    .fil21 {fill:#A1DBE9;fill-rule:nonzero;fill-opacity:0.141176}
    .fil22 {fill:#A1DBE9;fill-rule:nonzero;fill-opacity:0.200000}
    .fil18 {fill:#444954;fill-rule:nonzero;fill-opacity:0.258824}
    .fil23 {fill:#A1DBE9;fill-rule:nonzero;fill-opacity:0.309804}
    .fil4 {fill:#FDC683;fill-rule:nonzero;fill-opacity:0.811765}
    .fil25 {fill:url(#id2);fill-rule:nonzero}
    .fil2 {fill:url(#id3);fill-rule:nonzero}
    .fil24 {fill:url(#id4);fill-rule:nonzero}
   ]]>
  </style>
   <mask id="id0">
  <radialGradient id="id1" gradientUnits="userSpaceOnUse" cx="6668.17" cy="959.65" r="0" fx="6668.17" fy="959.65">
   <stop offset="0" style="stop-opacity:1; stop-color:white"/>
   <stop offset="0.188235" style="stop-opacity:0.458824; stop-color:white"/>
   <stop offset="0.741176" style="stop-opacity:0.227451; stop-color:white"/>
   <stop offset="1" style="stop-opacity:0; stop-color:white"/>
  </radialGradient>
    <rect style="fill:url(#id1)" x="6666.67" y="958.15" width="1204" height="1203.99"/>
   </mask>
  <linearGradient id="id2" gradientUnits="userSpaceOnUse" x1="7268.67" y1="1957.67" x2="7268.67" y2="427.75">
   <stop offset="0" style="stop-opacity:1; stop-color:yellow"/>
   <stop offset="0.180392" style="stop-opacity:1; stop-color:yellow"/>
   <stop offset="0.368627" style="stop-opacity:1; stop-color:yellow"/>
   <stop offset="1" style="stop-opacity:1; stop-color:#F94D49"/>
  </linearGradient>
  <linearGradient id="id3" gradientUnits="userSpaceOnUse" x1="7860.4" y1="4575.64" x2="-2137.98" y2="4549.15">
   <stop offset="0" style="stop-opacity:1; stop-color:#FDA14B"/>
   <stop offset="0.180392" style="stop-opacity:1; stop-color:#FDA14B"/>
   <stop offset="0.368627" style="stop-opacity:1; stop-color:#FDA14B"/>
   <stop offset="1" style="stop-opacity:1; stop-color:#F94D49"/>
  </linearGradient>
  <radialGradient id="id4" gradientUnits="userSpaceOnUse" gradientTransform="matrix(3527.78 -0 -0 3527.79 -2.5635E+07 -5.50231E+06)" cx="7268.67" cy="1560.15" r="600.5" fx="7268.67" fy="1560.15">
   <stop offset="0" style="stop-opacity:1; stop-color:yellow"/>
   <stop offset="0.188235" style="stop-opacity:1; stop-color:yellow"/>
   <stop offset="0.741176" style="stop-opacity:1; stop-color:yellow"/>
   <stop offset="1" style="stop-opacity:1; stop-color:yellow"/>
  </radialGradient>
 </defs>
 <g id="Layer_x0020_1">
  <metadata id="CorelCorpID_0Corel-Layer"/>
  <rect class="fil0" y="11.11" width="8500" height="4297.89"/>
  <polygon class="fil1" points="8503.81,3577.33 8503.81,4309.19 6.55,4309.19 6.55,3490.93 183.86,3539.63 524.59,3353.66 1335.76,3669.31 1965.07,3451.89 2531.31,3600.43 3126.6,3353.66 3897.36,3674.57 4053.29,3588.25 4315.36,3674.57 4878.88,3499.65 5395.25,3752.52 5506.21,3686.33 5751.27,3799.85 6477.82,3479.39 6698.81,3600.43 6982.98,3499.65 7426.61,3809.62 7653.4,3743.3 7851.26,3809.62 "/>
  <polygon class="fil2" points="8503.81,4302.23 6.55,4302.23 6.55,4309.19 8503.81,4309.19 "/>
  <g id="_2286288021584">
   <path class="fil3" d="M5773.15 1780.3l-899.73 0c-44.9,-57.88 21.55,-113.7 83.13,-77.51 6.05,-46.82 37.93,-88.89 88,-99.68 44.57,-12.7 84.9,9.46 118.71,41.36 9.16,-24.69 31.17,-43.58 63.5,-46.23 41.93,-3.11 83.87,34.12 114.76,77.08 48.87,-41.64 137.33,-13.72 201.87,29.23 41.48,-79.16 183.7,33.98 229.76,75.75z"/>
   <path class="fil4" d="M5773.12 1780.35l-899.71 0c-8.57,-11.09 -13.14,-22.16 -14.28,-32.45l898.91 19.2c5.72,4.91 10.85,9.37 15.08,13.26z"/>
  </g>
  <g id="_2286288087056">
   <path class="fil3" d="M8252.6 2387.13l-899.72 0c-44.91,-57.87 21.54,-113.71 83.12,-77.52 6.06,-46.81 37.94,-88.89 88.02,-99.68 44.56,-12.7 84.9,9.46 118.71,41.35 9.16,-24.67 31.17,-43.56 63.49,-46.22 41.93,-3.11 83.87,34.11 114.75,77.07 48.87,-41.64 137.34,-13.71 201.88,29.24 41.47,-79.16 183.69,33.97 229.76,75.75z"/>
   <path class="fil4" d="M8252.57 2387.18l-899.71 0c-8.58,-11.1 -13.14,-22.17 -14.28,-32.45l898.91 19.19c5.72,4.91 10.85,9.37 15.08,13.26z"/>
  </g>
  <polygon class="fil5" points="8503.81,3923.98 6.55,3923.98 6.55,4309.19 8503.81,4309.19 "/>
  <path class="fil6" d="M8503.81 4309.19l-8497.26 0 0 -113.14c279.34,7.5 549.32,24.57 847.02,7.6 341.59,-21.09 711.65,-21.09 1053.23,-10.56 384.29,10.56 754.35,63.34 1138.63,63.34 341.59,0 683.18,-42.22 1024.77,-42.22 725.86,0 1451.75,-10.56 2163.39,31.66 355.82,21.09 711.64,-42.22 1067.46,-52.78 313.12,-10.54 626.25,52.78 939.36,31.69 93.2,-5.29 179.19,-15.99 263.4,-25.3l0 109.71z"/>
  <path class="fil7" d="M7993.27 3689.07c0,41.72 -18.35,63.44 -58.41,73.46 -45.03,11.65 -76.73,6.66 -80.08,61.72 -3.3,52.4 4.68,104.85 6.51,157.23 -30.94,-2.25 -62.65,-1.5 -93.86,-2.04 -2.56,-19.63 -4.41,-39.48 -4.41,-60.11 0,-56.43 -1.41,-111.5 -1.63,-167.8 -5.07,-43.57 4.46,-97.47 8.3,-134.2 4.98,-30.04 -1.72,-85.11 14.98,-111.79 16.71,-28.39 56.75,-28.39 66.76,0 8.36,25 0,58.37 -3.31,83.41 -1.7,20.05 -1.7,146.87 48.38,108.46 35.05,-25.05 -15.03,-106.78 45.03,-110.13 43.4,-1.68 51.73,70.11 51.73,101.78z"/>
  <path class="fil7" d="M7715.55 3962.18c-25.51,2.57 -51.42,5.49 -76.3,3.3 -0.09,-20.56 -1.95,-40.62 -1.15,-61.36 0.94,-24.74 7.61,-50.44 4.76,-74.22 -3.83,-26.64 -35.21,-37.1 -41.87,-63.75 -1.91,-9.51 0,-43.77 9.52,-49.48 14.26,-8.56 16.14,11.42 18.07,19.99 2.85,8.54 5.71,26.63 15.22,29.49 13.32,4.74 18.08,-11.42 19.04,-20.94 0.95,-20.93 -9.52,-58.04 5.7,-75.15 20.93,-23.78 36.17,32.36 38.06,46.62 10.47,68.52 -5.71,137.96 3.81,206.48 1.91,12.39 3.35,25.81 5.14,39.04z"/>
  <path class="fil7" d="M843.87 3940.29c16.72,1.68 33.7,3.59 50,2.16 0.05,-13.48 1.28,-26.61 0.74,-40.2 -0.6,-16.22 -4.98,-33.07 -3.11,-48.64 2.51,-17.46 23.07,-24.32 27.44,-41.78 1.26,-6.22 0,-28.69 -6.24,-32.42 -9.35,-5.61 -10.59,7.49 -11.84,13.09 -1.87,5.6 -3.74,17.44 -9.98,19.33 -8.72,3.11 -11.84,-7.49 -12.46,-13.73 -0.63,-13.71 6.23,-38.03 -3.74,-49.25 -13.72,-15.58 -23.71,21.2 -24.94,30.56 -6.85,44.88 3.74,90.4 -2.49,135.3 -1.26,8.12 -2.2,16.91 -3.38,25.58z"/>
  <path class="fil7" d="M804.9 3962.17c-25.52,2.58 -51.42,5.49 -76.3,3.3 -0.09,-20.57 -1.95,-40.62 -1.15,-61.36 0.93,-24.74 7.6,-50.44 4.76,-74.22 -3.83,-26.65 -35.2,-37.09 -41.86,-63.75 -1.91,-9.51 0,-43.77 9.51,-49.48 14.26,-8.56 16.15,11.42 18.07,19.99 2.85,8.54 5.71,26.62 15.23,29.48 13.31,4.75 18.07,-11.42 19.03,-20.94 0.96,-20.93 -9.51,-58.04 5.7,-75.15 20.93,-23.78 36.17,32.36 38.07,46.62 10.46,68.52 -5.72,137.96 3.8,206.47 1.91,12.4 3.35,25.81 5.15,39.04z"/>
  <path class="fil7" d="M641.28 3960.47c-36.21,3.65 -72.97,7.8 -108.27,4.68 -0.13,-29.19 -2.77,-57.64 -1.63,-87.08 1.32,-35.09 10.79,-71.56 6.76,-105.3 -5.43,-37.81 -49.96,-52.64 -59.41,-90.47 -2.72,-13.5 0,-62.11 13.5,-70.2 20.24,-12.15 22.91,16.21 25.63,28.37 4.06,12.13 8.11,37.76 21.61,41.83 18.89,6.74 25.64,-16.21 27,-29.7 1.37,-29.72 -13.5,-82.35 8.1,-106.66 29.7,-33.74 51.34,45.93 54.01,66.16 14.85,97.22 -8.1,195.78 5.4,292.98 2.71,17.61 4.74,36.62 7.3,55.39z"/>
  <path class="fil8" d="M4344.71 3515.59c0,2.55 -0.18,5 -0.69,7.52l-1.42 6.41c0,0.09 -0.1,0.2 -0.1,0.2l-32.89 146.02c0,0.28 -0.07,0.65 -0.17,0.93l-1.54 6.94c0,0.06 0,0.06 0,0.06 -4.92,15.19 -19.25,26.11 -36.02,26.11l-68.57 0 0 -0.11 18.88 -176.19c10.7,-72.73 18.56,-83.36 26.54,-102.68l53.89 26.41c34.09,18.07 42.08,32.47 42.08,58.36z"/>
  <path class="fil9" d="M6946.93 3688.65l0 291.55c0,60.65 -50.96,109.65 -113.81,109.65l-2515.98 0c-62.82,0 -113.83,-48.99 -113.83,-109.65l0 -280.74 68.62 0c16.79,0 31.14,-10.55 35.97,-25.12 0,0 0,0 0,-0.12l1.55 -6.66c0.14,-0.26 0.27,-0.64 0.27,-1.02l32.87 -140.67c0,0 0.11,0 0.11,-0.12l1.43 -6.16c0.4,-2.36 0.68,-4.76 0.68,-7.28 0,-24.87 -8.09,-38.81 -42.13,-56.28l-53.86 -25.35c22.18,-45.25 58.97,-73.27 122.07,-73.27l673.22 0 1458.65 0 14.98 0c203.79,0 429.2,233.41 429.2,331.23z"/>
  <path class="fil8" d="M6888.37 3666.63c0,9.85 -8.06,17.9 -17.94,17.9l-2468.51 0c-25.78,0 -46.73,-20.95 -46.73,-46.83 0,-2.55 0.19,-5.04 0.67,-7.5l1.4 -6.46c0,-0.08 0.11,-0.19 0.11,-0.19l32.89 -146.02c0,-0.28 0.09,-0.65 0.2,-0.92l1.52 -6.93c0,-0.11 0,-0.11 0,-0.11 4.94,-15.18 19.25,-26.06 36.02,-26.06l2070.17 0c183.42,0 348.13,138.35 387.09,212.94 0.77,1.15 1.34,2.28 1.79,3.53 0.88,1.99 1.34,4.26 1.34,6.65z"/>
  <path class="fil8" d="M6946.87 3673.48l0 11.11c-16.41,0 -32.89,-24.25 -39.33,-36.89 -0.11,-0.08 -0.11,-0.3 -0.23,-0.38 -0.44,-0.95 -1.02,-1.79 -1.6,-2.77 -39.59,-74.71 -188.38,-202.26 -361.91,-222.07 -19.37,-1.69 -41.07,-12.59 -41.07,-34.29l5.32 0c203.79,0 438.83,183.72 438.83,285.3z"/>
  <path class="fil8" d="M6946.87 3709.82l0 176.13 -41.31 13.86c-12.48,4.23 -17.22,14.61 -17.22,26.72l0 9.24c0,15.98 -12.37,28.96 -27.97,30.22 -3.24,-0.41 -6.47,-0.65 -9.75,-0.89 -25.84,-2.5 -50.67,-7.5 -74.26,-14.59l-525.54 -138.3 -13.85 -3.76c-18.32,-7.74 -31.32,-25.96 -31.32,-47.19 0,-28.46 22.95,-51.43 51.42,-51.43l689.8 0z"/>
  <path class="fil10" d="M6860.31 3965.91c-0.75,0.11 -1.44,0.11 -2.19,0.11 -2.56,0 -5.11,-0.28 -7.52,-0.98 3.26,0.33 6.46,0.6 9.7,0.87z"/>
  <path class="fil10" d="M6250.86 3812.11c-4.81,-0.56 -9.48,-1.82 -13.9,-3.7l13.9 3.7z"/>
  <polygon class="fil11" points="4321.05,3725.2 6162.96,3725.2 6162.96,3709.82 4321.05,3709.82 "/>
  <polygon class="fil11" points="4372.17,3752.92 6162.96,3752.92 6162.96,3737.5 4372.17,3737.5 "/>
  <polygon class="fil11" points="4428.68,3780.63 6162.96,3780.63 6162.96,3765.21 4428.68,3765.21 "/>
  <path class="fil12" d="M7006.13 3701.48c0,4.57 -3.73,8.28 -8.29,8.28l-134.07 0c-4.58,0 -8.3,-3.7 -8.3,-8.28 0,-4.57 3.72,-8.3 8.3,-8.3l134.07 0c4.56,0 8.29,3.73 8.29,8.3z"/>
  <polygon class="fil13" points="4831.81,3995.94 4831.81,4089.84 4587.65,4089.84 4587.65,3995.94 4658.11,3925.48 4761.38,3925.48 "/>
  <polygon class="fil13" points="5135.24,3995.94 5135.24,4089.84 4891.08,4089.84 4891.08,3995.94 4961.55,3925.48 5064.81,3925.48 "/>
  <polygon class="fil13" points="6407.11,3995.94 6407.11,4089.84 6162.96,4089.84 6162.96,3995.94 6233.45,3925.48 6336.69,3925.48 "/>
  <polygon class="fil14" points="4321.05,3824.33 4321.05,3977.95 4262.81,3977.95 4274.37,3865 "/>
  <path class="fil10" d="M6008.61 3965.88c0,4.65 -3.77,8.41 -8.38,8.41l-24.52 0c-4.61,0 -8.36,-3.76 -8.36,-8.41 0,-4.6 3.74,-8.37 8.36,-8.37l24.52 0c4.61,0 8.38,3.77 8.38,8.37z"/>
  <path class="fil10" d="M5698.96 3965.88c0,4.65 -3.76,8.41 -8.37,8.41l-24.5 0c-4.65,0 -8.39,-3.76 -8.39,-8.41 0,-4.6 3.74,-8.37 8.39,-8.37l24.5 0c4.61,0 8.37,3.77 8.37,8.37z"/>
  <path class="fil10" d="M5354.31 3965.88c0,4.65 -3.76,8.41 -8.38,8.41l-24.5 0c-4.61,0 -8.38,-3.76 -8.38,-8.41 0,-4.6 3.76,-8.37 8.38,-8.37l24.5 0c4.62,0 8.38,3.77 8.38,8.37z"/>
  <polygon class="fil15" points="6635.26,4089.84 6789.53,4089.84 6789.53,3954.22 6635.26,3913.38 "/>
  <g id="_2286288075120">
   <path class="fil16" d="M4813.19 4045.78c0,57.18 -46.32,103.49 -103.45,103.49 -57.16,0 -103.5,-46.31 -103.5,-103.49 0,-57.14 46.33,-103.46 103.5,-103.46 57.13,0 103.45,46.32 103.45,103.46z"/>
   <path class="fil17" d="M4773.28 4045.78c0,35.11 -28.46,63.59 -63.54,63.59 -35.09,0 -63.59,-28.47 -63.59,-63.59 0,-35.1 28.49,-63.56 63.59,-63.56 35.09,0 63.54,28.46 63.54,63.56z"/>
   <path class="fil18" d="M4709.65 3968.38c-42.61,0 -77.28,34.69 -77.28,77.46 0,42.74 34.67,77.42 77.28,77.42 42.78,0 77.48,-34.68 77.48,-77.42 0,-42.77 -34.7,-77.46 -77.48,-77.46zm0 140.95l0 0c-35.05,0 -63.5,-28.43 -63.5,-63.49 0,-35.07 28.45,-63.67 63.5,-63.67 35.21,0 63.63,28.59 63.63,63.67 0,35.06 -28.42,63.49 -63.63,63.49z"/>
   <path class="fil19" d="M4756.61 4045.82c0,26.49 -21.46,47.96 -48.08,47.96 -26.52,0 -47.99,-21.47 -47.99,-47.96 0,-26.53 21.48,-48.11 47.99,-48.11 26.62,0 48.08,21.58 48.08,48.11z"/>
   <path class="fil20" d="M4748.93 4045.78c0,22.3 -18.04,40.3 -40.4,40.3 -22.25,0 -40.3,-18 -40.3,-40.3 0,-22.24 18.06,-40.38 40.3,-40.38 22.36,0 40.4,18.13 40.4,40.38z"/>
  </g>
  <g id="_2286288071408">
   <path class="fil16" d="M5116.64 4045.78c0,57.18 -46.33,103.49 -103.46,103.49 -57.14,0 -103.51,-46.31 -103.51,-103.49 0,-57.14 46.37,-103.46 103.51,-103.46 57.13,0 103.46,46.32 103.46,103.46z"/>
   <path class="fil17" d="M5076.7 4045.78c0,35.11 -28.43,63.59 -63.52,63.59 -35.13,0 -63.58,-28.47 -63.58,-63.59 0,-35.1 28.45,-63.56 63.58,-63.56 35.1,0 63.52,28.46 63.52,63.56z"/>
   <path class="fil18" d="M5013.08 3968.38c-42.61,0 -77.28,34.69 -77.28,77.46 0,42.74 34.66,77.42 77.28,77.42 42.78,0 77.48,-34.68 77.48,-77.42 0,-42.77 -34.7,-77.46 -77.48,-77.46zm0 140.95l0 0c-35.04,0 -63.48,-28.43 -63.48,-63.49 0,-35.07 28.44,-63.67 63.48,-63.67 35.21,0 63.63,28.59 63.63,63.67 0,35.06 -28.41,63.49 -63.63,63.49z"/>
   <path class="fil19" d="M5060.06 4045.82c0,26.49 -21.46,47.96 -48.1,47.96 -26.49,0 -47.99,-21.47 -47.99,-47.96 0,-26.53 21.5,-48.11 47.99,-48.11 26.64,0 48.1,21.58 48.1,48.11z"/>
   <path class="fil20" d="M5052.36 4045.78c0,22.3 -18.02,40.3 -40.41,40.3 -22.24,0 -40.29,-18 -40.29,-40.3 0,-22.24 18.05,-40.38 40.29,-40.38 22.39,0 40.41,18.13 40.41,40.38z"/>
  </g>
  <g id="_2286288068272">
   <path class="fil16" d="M6388.56 4045.78c0,57.18 -46.36,103.49 -103.52,103.49 -57.12,0 -103.49,-46.31 -103.49,-103.49 0,-57.14 46.37,-103.46 103.49,-103.46 57.15,0 103.52,46.32 103.52,103.46z"/>
   <path class="fil17" d="M6348.63 4045.78c0,35.11 -28.46,63.59 -63.58,63.59 -35.07,0 -63.55,-28.47 -63.55,-63.59 0,-35.1 28.47,-63.56 63.55,-63.56 35.13,0 63.58,28.46 63.58,63.56z"/>
   <path class="fil18" d="M6285.02 3968.38c-42.64,0 -77.33,34.69 -77.33,77.46 0,42.74 34.69,77.42 77.33,77.42 42.75,0 77.42,-34.68 77.42,-77.42 0,-42.77 -34.67,-77.46 -77.42,-77.46zm0 140.95l0 0c-35.07,0 -63.52,-28.43 -63.52,-63.49 0,-35.07 28.44,-63.67 63.52,-63.67 35.18,0 63.61,28.59 63.61,63.67 0,35.06 -28.43,63.49 -63.61,63.49z"/>
   <path class="fil11" d="M6331.94 4045.82c0,26.49 -21.46,47.96 -48.08,47.96 -26.5,0 -47.97,-21.47 -47.97,-47.96 0,-26.53 21.47,-48.11 47.97,-48.11 26.63,0 48.08,21.58 48.08,48.11z"/>
   <path class="fil20" d="M6324.27 4045.78c0,22.3 -18.04,40.3 -40.41,40.3 -22.24,0 -40.27,-18 -40.27,-40.3 0,-22.24 18.02,-40.38 40.27,-40.38 22.37,0 40.41,18.13 40.41,40.38z"/>
  </g>
  <path class="fil21" d="M6600.74 3738.08l0 130.94 -353.15 -92.99c-6.61,-3.5 -10.72,-10.24 -10.72,-17.85 0,-11.12 8.98,-20.1 20.09,-20.1l343.78 0z"/>
  <path class="fil21" d="M6915.69 3738.08l0 122.46 -20.09 6.73 -38.45 12.74 0 51.3 -3.61 -0.23c-23.24,-2.28 -46.2,-6.76 -68.17,-13.39l-150.17 -39.57 0 -140.04 280.49 0z"/>
  <polygon class="fil22" points="5182.06,3471.62 5182.06,3650.11 4813.19,3650.11 4813.19,3471.62 "/>
  <polygon class="fil23" points="5590.85,3471.62 5590.85,3650.11 5222.01,3650.11 5222.01,3471.62 "/>
  <polygon class="fil22" points="5999.7,3471.62 5999.7,3650.11 5630.84,3650.11 5630.84,3471.62 "/>
  <polygon class="fil21" points="6408.48,3471.62 6408.48,3650.11 6039.63,3650.11 6039.63,3471.62 "/>
  <path class="fil21" d="M6846.67 3650.11l-398.2 0 0 -178.49 49.67 0c155.17,0 298.59,107.95 348.54,178.49z"/>
  <path class="fil21" d="M4772.59 3471.62l0 178.49 -371.38 0c-8.5,0 -15.47,-7 -15.47,-15.59l0 -1.11 35.57 -158.18c1,-1.88 3.13,-3.61 5.98,-3.61l345.3 0z"/>
  <path class="fil24" style="mask:url(#id0)" d="M7869.17 1560.15c0,331.63 -268.86,600.49 -600.5,600.49 -331.64,0 -600.5,-268.86 -600.5,-600.49 0,-331.65 268.86,-600.5 600.5,-600.5 331.64,0 600.5,268.85 600.5,600.5z"/>
  <path class="fil25" d="M7690.33 1560.15c0,232.85 -188.8,421.64 -421.66,421.64 -232.86,0 -421.65,-188.79 -421.65,-421.64 0,-232.88 188.79,-421.66 421.65,-421.66 232.87,0 421.66,188.78 421.66,421.66z"/>
  <g id="_2286288063472">
   <path class="fil3" d="M7566.23 2052.66l-1344.51 0c-67.1,-86.5 32.2,-169.92 124.23,-115.85 9.05,-69.96 56.69,-132.84 131.52,-148.96 66.6,-18.97 126.87,14.14 177.39,61.8 13.69,-36.87 46.59,-65.11 94.89,-69.08 62.67,-4.65 125.34,50.98 171.48,115.19 73.04,-62.23 205.22,-20.51 301.68,43.69 61.99,-118.28 274.5,50.76 343.33,113.21z"/>
   <path class="fil4" d="M7566.2 2052.72l-1344.51 0c-12.8,-16.57 -19.63,-33.12 -21.33,-48.49l1343.31 28.69c8.54,7.34 16.2,14 22.52,19.81z"/>
  </g>
  <path class="fil26" d="M8204.6 1720.31l-688.43 0c-16.2,-22.14 -7.69,-50.01 6.04,-61.9 37.92,-32.85 85.77,-22.78 129.19,1.52 11.33,-33.06 55.32,-55.4 95.82,-44.07 33.28,9.28 57.7,25.06 78.65,44.94 18.25,-40.3 111.69,-29.27 168.62,0.96 25.39,-41.69 177.7,14.48 210.1,58.55z"/>
 </g>
</svg>
