<?xml version="1.0" encoding="iso-8859-1"?>
<!-- Generator: Adobe Illustrator 19.0.0, SVG Export Plug-In . SVG Version: 6.00 Build 0)  -->
<svg version="1.1" id="Capa_1" xmlns="http://www.w3.org/2000/svg" xmlns:xlink="http://www.w3.org/1999/xlink" x="0px" y="0px"
	 viewBox="0 0 512.8 512.8" style="enable-background:new 0 0 512.8 512.8;" xml:space="preserve">
<g>
	<g>
		<g>
			<polygon points="83.2,410 72,421.2 60.8,410 49.6,421.2 60.8,432.4 49.6,443.6 60.8,454.8 72,443.6 83.2,454.8 94.4,443.6 
				83.2,432.4 94.4,421.2 			"/>
			<path d="M512.8,200.4c0-2.4-0.8-4-2.4-5.6L484.8,170l25.6-24.8c1.6-1.6,2.4-4,2.4-5.6c0-2.4-0.8-4-2.4-5.6l-25.6-24.8l25.6-24.8
				c0.8-1.6,1.6-3.2,1.6-5.6c0-2.4-0.8-4-2.4-5.6l-32-30.4c0,0-0.8,0-0.8-0.8c-0.8,0-0.8-0.8-1.6-0.8c-0.8,0-0.8,0-1.6,0
				s-0.8,0-0.8,0H392V8.4c0-4.8-3.2-8-8-8h-64h-64h-64h-64c-4.8,0-8,3.2-8,8v32H8c-0.8,0-1.6,0-1.6,0H5.6c0,0-0.8,0-0.8,0.8
				c-0.8,0-1.6,0.8-1.6,1.6c0,0,0,0.8-0.8,0.8c0,0.8-0.8,0.8-0.8,1.6s0,1.6,0,1.6C0,47.6,0,48.4,0,48.4c0,0.8,0,1.6,0.8,2.4v0.8
				c0,0,0,0.8,0.8,0.8c0,0.8,0.8,1.6,1.6,1.6l25.6,24.8L3.2,103.6c-2.4,1.6-3.2,3.2-3.2,5.6c0,2.4,0.8,4,2.4,5.6L28,139.6L2.4,164.4
				C0.8,166,0,167.6,0,170c0,2.4,0.8,4,2.4,5.6L28,200.4L2.4,225.2c-1.6,1.6-2.4,3.2-2.4,5.6c0,2.4,0.8,4,2.4,5.6L28,261.2L2.4,286
				c-1.6,1.6-2.4,3.2-2.4,5.6c0,2.4,0.8,4,2.4,5.6L28,322L2.4,346.8c-0.8,0.8-0.8,0.8-0.8,1.6l-0.8,0.8v0.8C0,350.8,0,351.6,0,352.4
				v0.8c0,0.8,0,1.6,0,1.6c0,0.8,0.8,0.8,0.8,1.6c0,0,0,0.8,0.8,0.8c0.8,0.8,1.6,1.6,2.4,1.6c1.6,1.6,3.2,1.6,4,1.6h136v72h-16
				c-4.8,0-8,3.2-8,8v64c0,4.8,3.2,8,8,8h256c4.8,0,8-3.2,8-8v-64c0-4.8-3.2-8-8-8h-4.8l10.4-10.4l0.8-0.8l48.8-60.8h0.8h32
				c0.8,0,2.4,0,3.2-0.8c0.8,0,0.8-0.8,1.6-0.8s0.8-0.8,1.6-0.8l32-30.4c1.6-1.6,2.4-4,2.4-5.6c0-1.6-0.8-4-2.4-5.6l-25.6-24.8
				l25.6-24.8c1.6-1.6,2.4-4,2.4-5.6c0-1.6-0.8-4-2.4-5.6l-25.6-24.8l25.6-24.8C512,204.4,512.8,202,512.8,200.4z M328,16.4h48v62.4
				c-3.2,10.4-12.8,17.6-24,17.6s-20.8-7.2-24-17.6V16.4z M264,16.4h48v62.4c-3.2,10.4-12.8,17.6-24,17.6s-20.8-7.2-24-17.6V16.4z
				 M200,16.4h48v62.4c-3.2,10.4-12.8,17.6-24,17.6s-20.8-7.2-24-17.6V16.4z M136,16.4h48v62.4c-3.2,10.4-12.8,17.6-24,17.6
				s-20.8-7.2-24-17.6V16.4z M376,496.4H136v-48h240V496.4z M443.2,330c-0.8,0.8-0.8,0.8-1.6,1.6l-63.2,79.2l-21.6,21.6H169.6
				c37.6-41.6,75.2-78.4,141.6-72c1.6,0,4,0,5.6-1.6l88-64c15.2-10.4,35.2-20,45.6-8.8c4.8,4.8,7.2,12,6.4,20
				C456,315.6,451.2,324.4,443.2,330z M160,419.6v-59.2h68.8C201.6,374.8,180,397.2,160,419.6z M492,322l-23.2,22.4H452l1.6-2.4
				c11.2-8.8,17.6-21.6,19.2-35.2c0-1.6,0-2.4,0-4L492,322z M466.4,225.2c-1.6,1.6-2.4,4-2.4,5.6c0,1.6,0.8,4,2.4,5.6l25.6,24.8
				l-24,23.2c-1.6-3.2-4-6.4-6.4-9.6c-10.4-10.4-30.4-17.6-66.4,7.2l-85.6,62.4c-10.4-0.8-20-0.8-29.6,0H28l17.6-16.8
				c1.6-1.6,2.4-3.2,2.4-5.6c0-2.4-0.8-4-2.4-5.6L20,291.6l25.6-24.8c1.6-1.6,2.4-3.2,2.4-5.6s-0.8-4-2.4-5.6L20,230.8L45.6,206
				c1.6-1.6,2.4-3.2,2.4-5.6c0-2.4-0.8-4-2.4-5.6L20,170l25.6-24.8c1.6-1.6,2.4-3.2,2.4-5.6c0-2.4-0.8-4-2.4-5.6L20,109.2l25.6-24.8
				c1.6-1.6,2.4-3.2,2.4-5.6c0-2.4-0.8-4-2.4-5.6L28,56.4h92v24c0,0.8,0,1.6,0,2.4c4.8,17.6,21.6,29.6,40,29.6
				c12.8,0,24-5.6,32-15.2c8,9.6,19.2,15.2,32,15.2s24-5.6,32-15.2c8,9.6,19.2,15.2,32,15.2s24-5.6,32-15.2c8,9.6,19.2,15.2,32,15.2
				c18.4,0,34.4-12,40-29.6c0-0.8,0-1.6,0-2.4v-24h76.8L492,78.8l-25.6,24.8c-1.6,1.6-2.4,4-2.4,5.6s0.8,4,2.4,5.6l25.6,24.8
				l-25.6,24.8c-1.6,1.6-2.4,4-2.4,5.6c0,2.4,0.8,4,2.4,5.6l25.6,24.8L466.4,225.2z"/>
			<path d="M152,80.4h16c4.8,0,8-3.2,8-8s-3.2-8-8-8h-16c-4.8,0-8,3.2-8,8S147.2,80.4,152,80.4z"/>
			<path d="M216,80.4h16c4.8,0,8-3.2,8-8s-3.2-8-8-8h-16c-4.8,0-8,3.2-8,8S211.2,80.4,216,80.4z"/>
			<path d="M280,80.4h16c4.8,0,8-3.2,8-8s-3.2-8-8-8h-16c-4.8,0-8,3.2-8,8S275.2,80.4,280,80.4z"/>
			<path d="M344,80.4h16c4.8,0,8-3.2,8-8s-3.2-8-8-8h-16c-4.8,0-8,3.2-8,8S339.2,80.4,344,80.4z"/>
			<path d="M429.6,290.8c-3.2-3.2-8-3.2-11.2,0s-3.2,8,0,11.2l16,16c1.6,1.6,4,2.4,5.6,2.4c1.6,0,4-0.8,5.6-2.4
				c3.2-3.2,3.2-8,0-11.2L429.6,290.8z"/>
			<path d="M96,136.4h88c4.8,0,8-3.2,8-8s-3.2-8-8-8H96c-4.8,0-8,3.2-8,8S91.2,136.4,96,136.4z"/>
			<path d="M168,304.4H96c-4.8,0-8,3.2-8,8s3.2,8,8,8h72c4.8,0,8-3.2,8-8S172.8,304.4,168,304.4z"/>
			<path d="M416,120.4h-72c-4.8,0-8,3.2-8,8s3.2,8,8,8h72c4.8,0,8-3.2,8-8S420.8,120.4,416,120.4z"/>
			<path d="M336,480.4h16c4.8,0,8-3.2,8-8s-3.2-8-8-8h-16c-4.8,0-8,3.2-8,8S331.2,480.4,336,480.4z"/>
			<path d="M392,160.4H104c-4.8,0-8,3.2-8,8v96c0,4.8,3.2,8,8,8h43.2c4.8,9.6,14.4,16,24.8,16s20.8-6.4,24.8-16h109.6
				c4.8,9.6,14.4,16,24.8,16c10.4,0,20.8-6.4,24.8-16h36c4.8,0,8-3.2,8-8v-96C400,163.6,396.8,160.4,392,160.4z M328,176.4h32v24
				h-32V176.4z M280,176.4h32v24h-32V176.4z M232,176.4h32v24h-32V176.4z M184,176.4h32v24h-32V176.4z M112,176.4h32v24h-32V176.4z
				 M172,272.4c-6.4,0-12-5.6-12-12c0-6.4,5.6-12,12-12c6.4,0,12,5.6,12,12C184,266.8,178.4,272.4,172,272.4z M332,272.4
				c-6.4,0-12-5.6-12-12c0-6.4,5.6-12,12-12c6.4,0,12,5.6,12,12C344,266.8,338.4,272.4,332,272.4z M384,256.4h-24.8
				c-1.6-13.6-13.6-24-27.2-24c-13.6,0-25.6,10.4-27.2,24H199.2c-1.6-13.6-13.6-24-27.2-24s-25.6,10.4-27.2,24H112v-40h40
				c4.8,0,8-3.2,8-8v-32h8v32c0,4.8,3.2,8,8,8h192c4.8,0,8-3.2,8-8v-32h8V256.4z"/>
			<rect x="408" y="192.4" width="16" height="16"/>
			<rect x="408" y="224.4" width="16" height="16"/>
			<rect x="432" y="192.4" width="16" height="16"/>
		</g>
	</g>
</g>
<g>
</g>
<g>
</g>
<g>
</g>
<g>
</g>
<g>
</g>
<g>
</g>
<g>
</g>
<g>
</g>
<g>
</g>
<g>
</g>
<g>
</g>
<g>
</g>
<g>
</g>
<g>
</g>
<g>
</g>
</svg>
